P3
# Created by acp18gc
16 16
255
128 134 139   128 134 139   102 109 114   102 109 114   136 143 148   136 143 148   178 184 188   178 184 188   244 245 247   244 245 247   253 253 253   253 253 253   226 226 227   226 226 227   213 214 215   213 214 215   
128 134 139   128 134 139   102 109 114   102 109 114   136 143 148   136 143 148   178 184 188   178 184 188   244 245 247   244 245 247   253 253 253   253 253 253   226 226 227   226 226 227   213 214 215   213 214 215   
222 223 222   222 223 222   79 77 77   79 77 77   73 77 79   73 77 79   129 137 140   129 137 140   214 215 216   214 215 216   252 253 253   252 253 253   255 255 255   255 255 255   166 166 166   166 166 166   
222 223 222   222 223 222   79 77 77   79 77 77   73 77 79   73 77 79   129 137 140   129 137 140   214 215 216   214 215 216   252 253 253   252 253 253   255 255 255   255 255 255   166 166 166   166 166 166   
193 196 201   193 196 201   113 164 204   113 164 204   153 172 174   153 172 174   163 167 173   163 167 173   126 127 129   126 127 129   104 108 111   104 108 111   130 134 137   130 134 137   136 138 140   136 138 140   
193 196 201   193 196 201   113 164 204   113 164 204   153 172 174   153 172 174   163 167 173   163 167 173   126 127 129   126 127 129   104 108 111   104 108 111   130 134 137   130 134 137   136 138 140   136 138 140   
194 198 203   194 198 203   74 139 194   74 139 194   182 176 159   182 176 159   82 151 206   82 151 206   217 209 208   217 209 208   202 202 209   202 202 209   213 213 211   213 213 211   182 183 184   182 183 184   
194 198 203   194 198 203   74 139 194   74 139 194   182 176 159   182 176 159   82 151 206   82 151 206   217 209 208   217 209 208   202 202 209   202 202 209   213 213 211   213 213 211   182 183 184   182 183 184   
183 179 187   183 179 187   74 138 195   74 138 195   124 150 175   124 150 175   78 146 203   78 146 203   215 208 204   215 208 204   173 173 186   173 173 186   180 181 191   180 181 191   184 185 193   184 185 193   
183 179 187   183 179 187   74 138 195   74 138 195   124 150 175   124 150 175   78 146 203   78 146 203   215 208 204   215 208 204   173 173 186   173 173 186   180 181 191   180 181 191   184 185 193   184 185 193   
200 202 204   200 202 204   170 170 184   170 170 184   104 128 169   104 128 169   153 160 182   153 160 182   203 203 204   203 203 204   173 174 185   173 174 185   193 193 197   193 193 197   194 195 198   194 195 198   
200 202 204   200 202 204   170 170 184   170 170 184   104 128 169   104 128 169   153 160 182   153 160 182   203 203 204   203 203 204   173 174 185   173 174 185   193 193 197   193 193 197   194 195 198   194 195 198   
198 198 202   198 198 202   210 210 212   210 210 212   219 215 214   219 215 214   216 217 217   216 217 217   215 217 217   215 217 217   201 203 208   201 203 208   194 196 203   194 196 203   191 193 202   191 193 202   
198 198 202   198 198 202   210 210 212   210 210 212   219 215 214   219 215 214   216 217 217   216 217 217   215 217 217   215 217 217   201 203 208   201 203 208   194 196 203   194 196 203   191 193 202   191 193 202   
129 88 93   129 88 93   49 25 31   49 25 31   52 28 34   52 28 34   57 33 40   57 33 40   60 37 42   60 37 42   61 40 46   61 40 46   59 42 46   59 42 46   57 42 46   57 42 46   
129 88 93   129 88 93   49 25 31   49 25 31   52 28 34   52 28 34   57 33 40   57 33 40   60 37 42   60 37 42   61 40 46   61 40 46   59 42 46   59 42 46   57 42 46   57 42 46   
