P3
# Created by RPFELGUEIRAS
16 16
255
173 168 160 110 100 92 151 143 138 154 148 142 126 119 114 111 104 99 112 106 102 63 57 53 26 22 19 10 10 8 1 1 1 3 3 3 0 0 0 80 78 76 66 64 62 0 0 0 
103 101 99 120 115 111 152 145 140 153 145 141 113 106 102 123 116 111 101 94 90 30 26 23 2 1 0 5 4 4 0 1 1 2 2 2 0 0 0 35 35 33 101 99 97 0 0 0 
4 5 7 36 37 40 209 205 201 230 225 219 174 167 164 146 139 135 83 73 69 37 28 25 0 0 0 0 0 0 0 0 0 0 0 0 0 0 0 0 0 0 115 115 114 44 43 44 
50 47 44 39 39 41 106 114 122 159 165 169 193 194 194 214 211 208 207 201 198 176 170 166 112 109 108 51 49 48 9 8 8 0 0 0 0 0 0 0 0 0 87 88 87 109 108 110 
57 56 54 61 59 55 64 52 41 66 52 37 78 67 43 75 82 77 91 108 120 157 159 159 202 197 191 206 203 197 189 184 180 151 146 142 95 91 89 38 35 35 15 15 14 135 135 138 
30 40 48 100 79 57 242 138 47 194 119 77 134 101 128 118 79 73 90 55 23 28 29 26 40 43 44 67 67 69 106 105 105 155 153 149 184 180 174 183 178 172 147 142 136 179 175 171 
30 40 49 102 80 57 204 122 45 149 104 74 81 84 148 158 108 115 248 136 44 103 72 44 6 22 36 54 54 44 39 40 33 23 24 25 39 40 40 70 70 69 112 110 108 125 121 116 
28 37 46 83 70 55 248 138 52 122 100 70 0 51 56 51 71 64 202 120 58 136 87 47 13 29 42 77 77 64 93 92 74 54 53 51 29 29 35 28 28 32 23 24 27 31 31 32 
54 56 54 76 81 70 190 116 53 163 105 63 113 93 72 90 89 80 202 121 60 159 93 41 12 30 45 59 59 54 73 73 64 79 78 67 74 73 63 71 70 61 65 65 59 53 52 51 
68 66 58 88 100 88 117 108 79 251 137 44 168 122 84 151 113 82 226 121 40 120 99 67 35 48 53 51 51 50 95 94 77 80 80 68 70 69 61 83 82 69 94 92 76 70 69 62 
50 49 47 61 59 55 77 91 82 158 129 80 154 128 90 170 131 86 184 127 66 90 101 85 63 65 59 50 50 49 91 91 75 52 51 51 26 26 36 37 37 43 44 43 46 56 55 53 
59 57 53 48 46 46 48 46 46 55 72 73 128 116 82 151 130 86 76 94 85 55 58 56 43 41 44 52 52 51 96 95 79 87 87 74 93 93 77 89 89 75 77 77 67 65 64 59 
56 49 47 56 51 48 49 44 44 46 41 41 44 47 50 45 52 54 52 50 49 44 42 44 47 45 46 50 49 49 78 77 67 94 92 77 95 93 77 95 94 78 103 102 83 83 81 70 
61 68 62 55 60 55 44 51 45 38 43 39 30 33 32 25 25 27 28 27 28 31 30 29 32 30 29 31 28 28 23 20 22 21 17 21 25 22 24 28 26 26 30 28 27 37 35 32 
143 213 198 144 208 196 163 211 199 160 204 192 154 200 188 148 195 183 143 189 177 139 186 173 137 182 171 136 179 168 135 175 164 135 173 162 138 171 162 139 170 162 141 170 162 144 171 163 
98 114 118 116 131 136 245 250 250 255 255 255 255 255 255 254 255 255 254 255 255 253 255 255 253 255 255 253 255 255 252 255 255 252 255 255 253 255 255 253 255 255 252 255 255 252 255 255 
